<svg width="39" height="36" viewBox="0 0 39 36" fill="none" xmlns="http://www.w3.org/2000/svg">
<path d="M5.94246 36H33.0575C37.0053 36 39 34.0139 39 30.1045V5.91638C39 2.00697 37.0053 0 33.0575 0H5.94246C2.01545 0 0 1.98606 0 5.91638V30.1045C0 34.0139 2.01545 36 5.94246 36ZM5.73468 33.2822C3.78157 33.2822 2.7219 32.2369 2.7219 30.23V11.9373C2.7219 9.93031 3.78157 8.88502 5.73468 8.88502H33.2653C35.1769 8.88502 36.2781 9.93031 36.2781 11.9373V30.23C36.2781 32.2369 35.1769 33.2822 33.2653 33.2822H5.73468ZM15.6249 15.9303H16.7677C17.4118 15.9303 17.6196 15.7631 17.6196 15.115V13.9652C17.6196 13.3171 17.4118 13.1289 16.7677 13.1289H15.6249C14.9808 13.1289 14.773 13.3171 14.773 13.9652V15.115C14.773 15.7631 14.9808 15.9303 15.6249 15.9303ZM22.2323 15.9303H23.3751C24.0192 15.9303 24.2062 15.7631 24.2062 15.115V13.9652C24.2062 13.3171 24.0192 13.1289 23.3751 13.1289H22.2323C21.5882 13.1289 21.3804 13.3171 21.3804 13.9652V15.115C21.3804 15.7631 21.5882 15.9303 22.2323 15.9303ZM28.8396 15.9303H29.9824C30.6265 15.9303 30.8135 15.7631 30.8135 15.115V13.9652C30.8135 13.3171 30.6265 13.1289 29.9824 13.1289H28.8396C28.1747 13.1289 27.9877 13.3171 27.9877 13.9652V15.115C27.9877 15.7631 28.1747 15.9303 28.8396 15.9303ZM9.01758 22.4739H10.1604C10.8045 22.4739 11.0123 22.3066 11.0123 21.6585V20.5087C11.0123 19.8606 10.8045 19.6934 10.1604 19.6934H9.01758C8.37347 19.6934 8.16569 19.8606 8.16569 20.5087V21.6585C8.16569 22.3066 8.37347 22.4739 9.01758 22.4739ZM15.6249 22.4739H16.7677C17.4118 22.4739 17.6196 22.3066 17.6196 21.6585V20.5087C17.6196 19.8606 17.4118 19.6934 16.7677 19.6934H15.6249C14.9808 19.6934 14.773 19.8606 14.773 20.5087V21.6585C14.773 22.3066 14.9808 22.4739 15.6249 22.4739ZM22.2323 22.4739H23.3751C24.0192 22.4739 24.2062 22.3066 24.2062 21.6585V20.5087C24.2062 19.8606 24.0192 19.6934 23.3751 19.6934H22.2323C21.5882 19.6934 21.3804 19.8606 21.3804 20.5087V21.6585C21.3804 22.3066 21.5882 22.4739 22.2323 22.4739ZM28.8396 22.4739H29.9824C30.6265 22.4739 30.8135 22.3066 30.8135 21.6585V20.5087C30.8135 19.8606 30.6265 19.6934 29.9824 19.6934H28.8396C28.1747 19.6934 27.9877 19.8606 27.9877 20.5087V21.6585C27.9877 22.3066 28.1747 22.4739 28.8396 22.4739ZM9.01758 29.0174H10.1604C10.8045 29.0174 11.0123 28.8502 11.0123 28.2021V27.0523C11.0123 26.4042 10.8045 26.2369 10.1604 26.2369H9.01758C8.37347 26.2369 8.16569 26.4042 8.16569 27.0523V28.2021C8.16569 28.8502 8.37347 29.0174 9.01758 29.0174ZM15.6249 29.0174H16.7677C17.4118 29.0174 17.6196 28.8502 17.6196 28.2021V27.0523C17.6196 26.4042 17.4118 26.2369 16.7677 26.2369H15.6249C14.9808 26.2369 14.773 26.4042 14.773 27.0523V28.2021C14.773 28.8502 14.9808 29.0174 15.6249 29.0174ZM22.2323 29.0174H23.3751C24.0192 29.0174 24.2062 28.8502 24.2062 28.2021V27.0523C24.2062 26.4042 24.0192 26.2369 23.3751 26.2369H22.2323C21.5882 26.2369 21.3804 26.4042 21.3804 27.0523V28.2021C21.3804 28.8502 21.5882 29.0174 22.2323 29.0174Z" fill="#9399A0"/>
</svg>
