<svg width="48" height="36" viewBox="0 0 48 36" fill="none" xmlns="http://www.w3.org/2000/svg">
<path d="M6.31827 36H41.6817C45.831 36 48 33.8563 48 29.8019V6.19806C48 2.14369 45.831 0 41.6817 0H6.31827C2.14538 0 0 2.12039 0 6.19806V29.8019C0 33.8796 2.14538 36 6.31827 36ZM2.26326 6.31456C2.26326 3.63495 3.70138 2.26019 6.36542 2.26019H41.611C44.2279 2.26019 45.7132 3.63495 45.7132 6.31456V8.01553H2.26326V6.31456ZM6.36542 33.7398C3.70138 33.7398 2.26326 32.365 2.26326 29.6854V12.9087H45.7132V29.6854C45.7132 32.365 44.2279 33.7398 41.611 33.7398H6.36542ZM9.12377 26.5864H14.5697C15.89 26.5864 16.7623 25.701 16.7623 24.466V20.3883C16.7623 19.1534 15.89 18.2913 14.5697 18.2913H9.12377C7.82711 18.2913 6.93124 19.1534 6.93124 20.3883V24.466C6.93124 25.701 7.82711 26.5864 9.12377 26.5864Z" fill="#22C6B6"/>
</svg>
