<svg width="48" height="36" viewBox="0 0 48 36" fill="none" xmlns="http://www.w3.org/2000/svg">
<path fill-rule="evenodd" clip-rule="evenodd" d="M46 2H2V28H46V2ZM2 0C0.895431 0 0 0.89543 0 2V28C0 29.1046 0.895432 30 2 30H46C47.1046 30 48 29.1046 48 28V2C48 0.895431 47.1046 0 46 0H2Z" fill="#9399A0"/>
<path fill-rule="evenodd" clip-rule="evenodd" d="M40.0867 35.6773C41.1526 35.8571 42.1685 35.1574 42.3805 34.0974L43.4999 28.5H0.624425C0.393973 28.5 0.278562 28.7786 0.441516 28.9416C0.479517 28.9796 0.528411 29.0048 0.581403 29.0137L40.0867 35.6773ZM21.4174 30.5L40.4193 33.7051L41.0603 30.5H21.4174Z" fill="#9399A0"/>
<path fill-rule="evenodd" clip-rule="evenodd" d="M24 23C28.4183 23 32 19.4183 32 15C32 10.5817 28.4183 7 24 7C19.5817 7 16 10.5817 16 15C16 19.4183 19.5817 23 24 23ZM24 25C29.5228 25 34 20.5228 34 15C34 9.47715 29.5228 5 24 5C18.4772 5 14 9.47715 14 15C14 20.5228 18.4772 25 24 25Z" fill="#9399A0"/>
</svg>
