<svg width="14" height="22" viewBox="0 0 14 22" fill="none" xmlns="http://www.w3.org/2000/svg">
<path d="M11.6777 14.5862C12.4102 14.0891 12.8579 13.7163 13.0614 13.4263C13.3056 13.0949 13.3056 12.6392 13.1021 12.1421C12.8986 11.8107 12.6137 11.5622 12.2881 11.4793C11.7998 11.3964 11.3521 11.5207 10.8637 11.8936L10.3753 12.225C9.9683 12.4735 9.52062 12.6392 9.07293 12.8049C8.38105 13.0121 7.68916 13.0949 6.99728 13.0949C6.2647 13.0949 5.57282 13.0121 4.92164 12.8049C4.43325 12.6392 4.02626 12.4735 3.61927 12.225L3.13089 11.8936C2.6425 11.5207 2.15411 11.3964 1.74712 11.4793C1.34013 11.5622 1.09594 11.8107 0.933145 12.1421C0.688952 12.6392 0.688952 13.0949 0.933145 13.4263C1.09594 13.7163 1.58433 14.0891 2.31691 14.5862C3.17159 15.1662 4.39255 15.539 6.02051 15.7047L2.07271 19.723C1.66573 20.0959 1.58433 20.5101 1.74712 20.9658C1.90992 21.4215 2.19481 21.7115 2.6832 21.8772C3.13089 22.0429 3.53788 21.96 3.90417 21.5872L6.99728 18.4388L10.1311 21.6286C10.4567 22.0015 10.8637 22.0843 11.3114 21.9186C11.7591 21.7529 12.0846 21.4215 12.2474 20.9658C12.4102 20.5101 12.2881 20.0959 11.9626 19.723L8.01476 15.7047C9.56131 15.539 10.7823 15.1662 11.6777 14.5862ZM1.70642 6.13536C1.70642 7.12958 1.90992 7.99953 2.39831 8.82804C2.88669 9.65656 3.53788 10.278 4.35185 10.7751C5.16583 11.2722 6.02051 11.4793 6.99728 11.4793C7.93336 11.4793 8.82873 11.2722 9.64271 10.7751C10.4567 10.278 11.0672 9.65656 11.5556 8.82804C12.0439 7.99953 12.2881 7.12958 12.2881 6.13536C12.2881 5.14114 12.0439 4.2712 11.5556 3.44268C11.0672 2.61416 10.4567 1.99278 9.64271 1.49567C8.82873 0.998555 7.93336 0.75 6.99728 0.75C6.02051 0.75 5.16583 0.998555 4.35185 1.49567C3.53788 1.99278 2.88669 2.61416 2.39831 3.44268C1.90992 4.2712 1.70642 5.14114 1.70642 6.13536ZM4.39255 6.13536C4.39255 5.3897 4.63675 4.76831 5.16583 4.2712C5.65422 3.77409 6.2647 3.48411 6.99728 3.48411C7.68916 3.48411 8.29965 3.77409 8.82873 4.2712C9.31712 4.76831 9.60201 5.3897 9.60201 6.13536C9.60201 6.88103 9.31712 7.50242 8.82873 7.99953C8.29965 8.49664 7.68916 8.74519 6.99728 8.74519C6.2647 8.74519 5.65422 8.49664 5.16583 7.99953C4.63675 7.50242 4.39255 6.88103 4.39255 6.13536Z" fill="white"/>
</svg>
