<svg width="16" height="16" viewBox="0 0 16 16" fill="none" xmlns="http://www.w3.org/2000/svg">
<path d="M5.91663 4.66669L3.41663 1.33335C2.53823 1.33335 1.83069 2.72224 1.58669 3.20835C1.0011 4.37502 4.03599 8.85072 5.49997 10.5521C6.08556 11.7188 10.9166 14.25 12.5833 14.6667C13.7545 14.6667 14.006 13.3646 14.25 13C15.1284 12.4167 12.7383 10.7952 11.7623 10.1875C10.8839 9.60419 10.3273 10.5521 10.0833 10.9167L8.83434 10.5521L6.74997 9.25002L4.66663 6.33335L5.91663 4.66669Z" fill="#1B1B1F"/>
<path fill-rule="evenodd" clip-rule="evenodd" d="M3.14084 1.79824C3.13942 1.79898 3.13986 1.7989 3.14084 1.79824C3.10379 1.82324 3.01925 1.87714 2.91399 1.94424C2.80593 2.01313 2.67603 2.09594 2.55326 2.1757C2.28209 2.35188 2.05757 2.50578 1.99529 2.56366C1.9196 2.63401 1.87436 2.68446 1.83651 2.7767C1.79382 2.88075 1.74999 3.06714 1.74999 3.41901C1.74999 4.08855 2.01318 5.14962 2.76748 6.51715C3.62644 8.07441 4.92494 9.56761 5.68904 10.3128L5.69427 10.3179C6.4394 11.0706 7.85167 12.3439 9.31651 13.1495C11.1349 14.1495 11.8438 14.25 12.4775 14.25C12.8055 14.25 13.0071 14.2052 13.1326 14.157C13.2519 14.1113 13.3193 14.0562 13.3729 14.003C13.679 13.6992 13.9058 13.3422 14.0573 13.0543C14.1324 12.9117 14.1873 12.7894 14.223 12.704C14.232 12.6824 14.2398 12.6632 14.2463 12.6468C14.243 12.6213 14.2371 12.5888 14.2264 12.5527C14.199 12.4606 14.1433 12.3513 14.0217 12.2622C13.5626 11.9516 12.1022 11.0421 11.7905 10.8709C11.7375 10.8417 11.6858 10.8095 11.6424 10.7822C11.6371 10.7789 11.6319 10.7756 11.6267 10.7723C11.5871 10.7474 11.5526 10.7257 11.5168 10.7047C11.4367 10.6577 11.3726 10.6282 11.3126 10.6132C11.2282 10.592 11.0816 10.5783 10.8166 10.7774C10.7147 10.87 10.4988 11.0414 10.24 11.1873C9.98266 11.3325 9.58857 11.5076 9.19579 11.4482C9.0689 11.429 8.94381 11.3756 8.84096 11.3238C8.73115 11.2684 8.61354 11.1977 8.49471 11.1196C8.2567 10.9632 7.99055 10.7621 7.73435 10.556C7.22468 10.146 6.72138 9.68952 6.51631 9.4747C6.49318 9.45047 6.46509 9.42125 6.43277 9.38762C6.20685 9.15254 5.77391 8.70205 5.37775 8.23471C5.15175 7.9681 4.92939 7.68638 4.7613 7.42854C4.67734 7.29976 4.60143 7.16863 4.54523 7.04227C4.49218 6.923 4.44055 6.77295 4.44055 6.6162C4.44055 6.27532 4.5015 6.02993 4.63631 5.79738C4.69715 5.69242 4.76846 5.59815 4.83549 5.51221C4.85294 5.48984 4.87023 5.46786 4.88759 5.44581C4.94047 5.37861 4.9939 5.31071 5.05384 5.22894C5.08563 5.18559 5.12294 5.14181 5.15095 5.10895C5.15278 5.1068 5.15457 5.1047 5.15632 5.10264C5.18854 5.0648 5.21607 5.03226 5.24227 4.99785C5.29395 4.92997 5.32824 4.87007 5.3464 4.80909C5.37343 4.71835 5.39979 4.51093 5.09504 4.1044L5.08899 4.09633L5.08334 4.08798C4.88421 3.7937 4.65133 3.44274 4.42265 3.0981C4.11822 2.63931 3.82122 2.19172 3.62117 1.90395C3.57184 1.83298 3.5244 1.79851 3.48662 1.77984C3.44709 1.76032 3.40279 1.7507 3.35354 1.75005C3.30305 1.74939 3.25184 1.75835 3.20716 1.77203C3.16916 1.78367 3.14621 1.79545 3.14084 1.79824ZM14.6663 12.7136C15.0823 12.7369 15.0823 12.7367 15.0824 12.7365L15.0824 12.7353L15.0825 12.7335L15.0827 12.7293L15.0831 12.7188C15.0833 12.7107 15.0834 12.7008 15.0833 12.6891C15.0831 12.6657 15.0821 12.635 15.079 12.5984C15.0728 12.5258 15.0584 12.4272 15.0252 12.3154C14.9583 12.09 14.8124 11.8046 14.5045 11.5829L14.4997 11.5794L14.4948 11.5761C14.0289 11.2603 12.5349 10.329 12.1917 10.1405C12.1627 10.1246 12.1301 10.1044 12.0858 10.0766C12.081 10.0736 12.076 10.0704 12.0708 10.0672C12.0323 10.043 11.9862 10.0139 11.9382 9.98579C11.8284 9.92141 11.6859 9.84766 11.5153 9.80488C11.1401 9.71078 10.7332 9.79073 10.2949 10.1272L10.2781 10.1401L10.2627 10.1546C10.2155 10.1992 10.0428 10.3418 9.83066 10.4615C9.60076 10.5911 9.41961 10.6392 9.32045 10.6242C9.32128 10.6243 9.32102 10.6242 9.31961 10.6238C9.31295 10.6218 9.28051 10.6121 9.21584 10.5795C9.14447 10.5436 9.05584 10.4912 8.95231 10.4231C8.7456 10.2873 8.50258 10.1045 8.25667 9.90668C7.7621 9.50885 7.28944 9.07773 7.11908 8.89927C7.09439 8.87342 7.06506 8.84288 7.03176 8.80823C6.80405 8.57121 6.39103 8.14131 6.01342 7.69585C5.79659 7.44006 5.59977 7.18877 5.45938 6.97344C5.3891 6.86562 5.33845 6.77512 5.30665 6.70362C5.2782 6.63966 5.27435 6.61182 5.27391 6.61187C5.27381 6.61189 5.27388 6.61336 5.27388 6.6162C5.27388 6.39095 5.31025 6.29641 5.35726 6.21532C5.38733 6.16345 5.42806 6.10746 5.49259 6.02472C5.50636 6.00707 5.52125 5.98815 5.53708 5.96804C5.59135 5.89909 5.6567 5.81606 5.7259 5.72167C5.73796 5.70522 5.75578 5.68402 5.79078 5.64292C5.82197 5.6063 5.86372 5.55728 5.90529 5.50267C5.9896 5.39195 6.08731 5.24085 6.14506 5.04697C6.26921 4.63014 6.17192 4.15516 5.76807 3.61292C5.58067 3.33584 5.35394 2.99424 5.12814 2.65406C4.81702 2.18531 4.50767 1.71923 4.30542 1.42829C4.04323 1.05114 3.68185 0.920975 3.36452 0.916794C3.07386 0.912964 2.81494 1.01283 2.6747 1.10748C2.64149 1.12988 2.57328 1.17329 2.48245 1.2311C2.37826 1.29741 2.2443 1.38266 2.09926 1.4769C1.85659 1.63455 1.55624 1.83405 1.42798 1.95325C1.31313 2.05999 1.16922 2.20769 1.06554 2.46039C0.966712 2.70128 0.916656 3.00662 0.916656 3.41901C0.916656 4.27801 1.24372 5.48 2.03779 6.91963C2.94652 8.56714 4.30106 10.1227 5.10459 10.9068C5.87343 11.6831 7.34971 13.0188 8.91493 13.8796C10.8018 14.9173 11.652 15.0834 12.4775 15.0834C12.8791 15.0834 13.1869 15.0287 13.431 14.9351C13.6812 14.8391 13.8435 14.7101 13.96 14.5944C14.3462 14.211 14.6194 13.7755 14.7947 13.4426C14.883 13.2748 14.9483 13.1296 14.9919 13.0252C15.0138 12.9729 15.0303 12.9306 15.0416 12.9005C15.0432 12.8963 15.0447 12.8924 15.046 12.8887C15.0496 12.879 15.0526 12.8709 15.0549 12.8646L15.0586 12.854L15.0598 12.8506L15.0602 12.8494C15.0602 12.8494 15.0605 12.8486 14.6663 12.7136ZM15.0605 12.8486L14.6663 12.7136L15.0824 12.7365L15.0791 12.7943L15.0605 12.8486Z" fill="#1B1B1F"/>
</svg>
