<svg width="24" height="15" viewBox="0 0 24 15" fill="none" xmlns="http://www.w3.org/2000/svg">
<path d="M22.7481 1.69531C22.6645 2.125 22.3299 2.85547 21.7444 3.84375C21.3262 4.57422 20.8244 5.39062 20.2388 6.33594C19.737 7.10938 19.4442 7.49609 19.4442 7.49609C19.277 7.75391 19.1933 7.96875 19.1933 8.09766C19.1933 8.26953 19.277 8.44141 19.4442 8.61328L19.8206 9.04297C21.8281 11.1914 22.9572 12.6523 23.2082 13.4258C23.2918 13.7695 23.25 14.0703 23.0827 14.2422C22.9154 14.4141 22.7063 14.5 22.3717 14.5H19.9043C19.5697 14.5 19.3188 14.4141 19.0678 14.1992C18.9006 14.1133 18.566 13.8125 18.1478 13.2969C17.7296 12.7812 17.3532 12.3516 17.0186 12.0078C15.8894 10.9336 15.053 10.375 14.5511 10.375C14.3002 10.375 14.1329 10.418 14.0493 10.5039C13.9656 10.5898 13.9238 10.8047 13.9238 11.0625C13.882 11.2773 13.882 11.707 13.882 12.3945V13.5117C13.882 13.8555 13.7983 14.1133 13.631 14.2422C13.3801 14.4141 12.8783 14.5 12.1255 14.5C10.7872 14.5 9.49071 14.1133 8.15242 13.2969C6.81413 12.5234 5.64312 11.3633 4.63941 9.85938C3.67751 8.57031 2.8829 7.23828 2.25558 5.86328C1.75372 4.83203 1.3355 3.88672 1.04275 2.98438C0.833643 2.29688 0.75 1.78125 0.75 1.48047C0.75 1.00781 1.00093 0.75 1.58643 0.75H4.0539C4.34665 0.75 4.55576 0.835938 4.72305 0.964844C4.89033 1.13672 5.0158 1.39453 5.14126 1.73828C5.51766 2.89844 5.97769 4.01562 6.5632 5.08984C7.06506 6.12109 7.56691 6.9375 8.06877 7.53906C8.57063 8.18359 8.94703 8.48438 9.23978 8.48438C9.40706 8.48438 9.49071 8.44141 9.57435 8.3125C9.65799 8.18359 9.69981 7.92578 9.69981 7.53906V3.80078C9.65799 3.37109 9.57435 2.94141 9.40706 2.59766C9.32342 2.42578 9.15613 2.21094 8.98885 1.95312C8.77974 1.69531 8.6961 1.52344 8.6961 1.35156C8.6961 1.17969 8.73792 1.05078 8.86338 0.921875C8.98885 0.835938 9.15613 0.75 9.32342 0.75H13.2128C13.4638 0.75 13.631 0.835938 13.7147 0.964844C13.7983 1.13672 13.882 1.35156 13.882 1.69531V6.67969C13.882 6.9375 13.9238 7.15234 14.0074 7.23828C14.0911 7.36719 14.1747 7.41016 14.3002 7.41016C14.4257 7.41016 14.5929 7.36719 14.7602 7.28125C14.9275 7.19531 15.1366 6.98047 15.4294 6.63672C15.9312 6.03516 16.4749 5.30469 17.0186 4.40234C17.3532 3.80078 17.7296 3.11328 18.0641 2.33984L18.4823 1.48047C18.6496 1.00781 19.026 0.75 19.5279 0.75H21.9954C22.6645 0.75 22.9154 1.09375 22.7481 1.69531Z" fill="white"/>
</svg>
