<svg width="22" height="16" viewBox="0 0 22 16" fill="none" xmlns="http://www.w3.org/2000/svg">
<path d="M20.8219 2.84375C20.9776 3.54688 21.1332 4.64062 21.2111 6.04688L21.25 8L21.2111 9.95312C21.1332 11.4375 20.9776 12.4922 20.8219 13.1953C20.6662 13.6641 20.4327 14.0547 20.1213 14.3672C19.7711 14.7188 19.3819 14.9531 18.9148 15.0703C18.2143 15.2656 16.6575 15.3828 14.1667 15.4609L10.625 15.5L7.08333 15.4609C4.59249 15.3828 2.99679 15.2656 2.33516 15.0703C1.86813 14.9531 1.44002 14.7188 1.12866 14.3672C0.778388 14.0547 0.544872 13.6641 0.428114 13.1953C0.233516 12.4922 0.116758 11.4375 0.0389194 9.95312L0 8C0 7.45312 0 6.78906 0.0389194 6.04688C0.116758 4.64062 0.233516 3.54688 0.428114 2.84375C0.544872 2.375 0.778388 1.98438 1.12866 1.63281C1.44002 1.32031 1.86813 1.08594 2.33516 0.929688C2.99679 0.773438 4.59249 0.617188 7.08333 0.539062L10.625 0.5L14.1667 0.539062C16.6575 0.617188 18.2143 0.773438 18.9148 0.929688C19.3819 1.08594 19.7711 1.32031 20.1213 1.63281C20.4327 1.98438 20.6662 2.375 20.8219 2.84375ZM8.44551 11.2031L14.011 8L8.44551 4.83594V11.2031Z" fill="white"/>
</svg>
